<svg width="292" height="334" viewBox="0 0 292 334" fill="none" xmlns="http://www.w3.org/2000/svg">
<path d="M155.174 334C151.488 334 147.803 333.806 144.117 333.515C155.465 324.019 163.612 314.135 171.566 304.542C182.719 291.073 194.261 277.119 214.726 263.843C246.83 243.01 281.941 236.227 291.155 234.676C289.118 244.173 278.546 281.77 232.767 311.131C222.098 318.108 193.097 334 155.174 334Z" fill="#ADB8BF" fill-opacity="0.1"/>
<path d="M189.891 272.653C203.943 247.318 212.471 221.598 215.087 196.07C237.861 171.795 260.829 156.767 291.162 147.038C288.158 164.377 281.761 187.304 276.141 200.598C272.846 208.4 267.806 216.781 262.961 224.969C260.538 229.112 258.115 233.157 256.08 236.818C235.342 240.768 213.246 252.713 189.891 272.653Z" fill="#ADB8BF" fill-opacity="0.1"/>
<path d="M135.182 331.079C113.714 298.844 103.417 260.335 98.5599 233.408C92.7315 201.27 95.0628 169.035 105.554 135.062C115.365 103.406 159.758 29.7676 168.501 15.5803C176.563 29.4781 215.419 101.187 209.785 172.22C204.734 236.69 176.175 297.396 135.182 331.079Z" fill="#ADB8BF" fill-opacity="0.1"/>
<path d="M87.7074 211.101C82.2643 154.396 109.869 101.934 115.604 93.6406C85.4718 45.0362 48.0501 8.7758 31.4291 0C30.5543 10.7045 24.9167 35.7782 19.7652 58.1517C17.724 67.2168 15.78 75.6069 14.5164 81.7788L11.0172 97.9803C3.24129 133.662 -3.46547 164.522 1.97769 203.868C10.0452 262.888 51.6465 307.056 119.006 328.273L125.615 330.105C105.981 298.473 91.887 254.305 87.7074 211.101ZM105.592 319.111C22.2924 284.008 3.92168 163.268 22.2923 77.8249C22.7783 75.7997 -2.00747 269.639 107.05 317.857C108.702 318.532 108.022 320.075 105.592 319.111Z" fill="#ADB8BF" fill-opacity="0.1"/>
<path d="M211.305 106.459C211.305 106.459 217.226 91.8325 237.319 82.4985C252.073 75.6664 258.674 75.9551 258.674 75.9551C259.062 97.8948 259.935 111.944 255.664 131.382C251.976 148.221 244.113 164.965 216.449 182.093C216.352 182.093 221.691 149.088 211.305 106.459Z" fill="#ADB8BF" fill-opacity="0.1"/>
</svg>
