<svg width="30" height="30" viewBox="0 0 30 30" fill="none" xmlns="http://www.w3.org/2000/svg">
<g id="Group 3263">
<circle id="Ellipse 1337" cx="15" cy="15" r="15" transform="rotate(-90 15 15)" fill="#00AC60"/>
<path id="Vector" d="M9.83293 12.1355L15.0005 16.9174L20.1681 12.1355C20.2605 12.0499 20.3844 12.002 20.5135 12.002C20.6425 12.002 20.7665 12.0499 20.8588 12.1355C20.9035 12.1771 20.939 12.2267 20.9633 12.2815C20.9875 12.3363 21 12.3951 21 12.4545C21 12.5139 20.9875 12.5727 20.9633 12.6275C20.939 12.6823 20.9035 12.7319 20.8588 12.7735L15.3614 17.8616C15.2648 17.951 15.1353 18.001 15.0005 18.001C14.8657 18.001 14.7362 17.951 14.6397 17.8616L9.14226 12.7745C9.09724 12.7328 9.06145 12.6831 9.03702 12.6281C9.01259 12.5732 9 12.5141 9 12.4545C9 12.3948 9.01259 12.3358 9.03702 12.2808C9.06145 12.2259 9.09724 12.1761 9.14226 12.1345C9.23459 12.0489 9.35853 12.001 9.48759 12.001C9.61666 12.001 9.7406 12.0489 9.83293 12.1345V12.1355Z" fill="white"/>
</g>
</svg>
