<svg width="38" height="38" viewBox="0 0 38 38" fill="none" xmlns="http://www.w3.org/2000/svg">
<path d="M31 9.91667V29.0833C31 29.5917 30.7989 30.0792 30.4408 30.4386C30.0828 30.7981 29.5972 31 29.0909 31H24.3182C23.8119 31 23.3263 30.7981 22.9683 30.4386C22.6102 30.0792 22.4091 29.5917 22.4091 29.0833V9.91667C22.4091 9.40833 22.6102 8.92082 22.9683 8.56138C23.3263 8.20193 23.8119 8 24.3182 8H29.0909C29.5972 8 30.0828 8.20193 30.4408 8.56138C30.7989 8.92082 31 9.40833 31 9.91667ZM16.6818 8H11.9091C11.4028 8 10.9172 8.20193 10.5592 8.56138C10.2011 8.92082 10 9.40833 10 9.91667V29.0833C10 29.5917 10.2011 30.0792 10.5592 30.4386C10.9172 30.7981 11.4028 31 11.9091 31H16.6818C17.1881 31 17.6737 30.7981 18.0317 30.4386C18.3898 30.0792 18.5909 29.5917 18.5909 29.0833V9.91667C18.5909 9.40833 18.3898 8.92082 18.0317 8.56138C17.6737 8.20193 17.1881 8 16.6818 8Z" fill="#3F4C5C"/>
</svg>
