<svg width="63" height="60" viewBox="0 0 63 60" fill="none" xmlns="http://www.w3.org/2000/svg">
<g clip-path="url(#clip0_1_554)">
<path d="M51.9987 20.8933C51.9979 20.5937 51.9907 20.2942 51.9773 19.995V3.01254L47.2789 7.70754C43.4332 3.00418 37.5833 0 31.0305 0C24.2115 0 18.1534 3.2523 14.3242 8.28934L22.0257 16.0657C22.7798 14.6737 23.8479 13.4761 25.1455 12.568C26.4901 11.5198 28.3951 10.6623 31.0305 10.6623C31.349 10.6623 31.5948 10.6997 31.7752 10.7695C35.0406 11.0272 37.871 12.8277 39.5373 15.4411L34.0855 20.8884C40.9907 20.8613 48.7911 20.8456 51.9982 20.8921" fill="#1C3AA9"/>
<path d="M30.9096 0.000976562C30.6098 0.00182645 30.3101 0.00895917 30.0106 0.02237H13.0149L17.7136 4.71737C13.0065 8.55983 10 14.4054 10 20.9528C10 27.7667 13.2548 33.8201 18.2958 37.6465L26.0783 29.9511C24.6851 29.1975 23.4866 28.1301 22.5779 26.8335C21.5288 25.4902 20.6706 23.5864 20.6706 20.953C20.6706 20.6351 20.708 20.3894 20.7779 20.2089C21.0358 16.9463 22.8377 14.1182 25.4532 12.4532L30.9047 17.9004C30.8776 11.0004 30.8616 3.20606 30.9084 0.00146837" fill="#4285F4"/>
<path d="M10 20.9521C10.001 21.2531 10.0079 21.5524 10.0214 21.8504V38.8329L14.7201 34.1379C18.5655 38.8412 24.4157 41.8454 30.9682 41.8454C37.7874 41.8454 43.8455 38.5931 47.675 33.5561L39.9735 25.7797C39.2193 27.1718 38.1511 28.3693 36.8535 29.2774C35.5091 30.3257 33.6038 31.1831 30.9684 31.1831C30.6502 31.1831 30.4044 31.1458 30.2237 31.0757C26.9586 30.8182 24.1282 29.0175 22.4619 26.4043L27.9134 20.9568C21.008 20.9839 13.2076 20.9999 10.0005 20.9534" fill="#ABABAB"/>
<path d="M13.5384 49.9594C13.0277 49.9594 12.5697 50.056 12.1647 50.2495C11.7626 50.4363 11.4098 50.7144 11.1343 51.0615C10.8569 51.4134 10.6433 51.8403 10.4937 52.3416C10.3485 52.8389 10.2756 53.3953 10.2756 54.0113V55.7867C10.2756 56.4069 10.3485 56.9656 10.4937 57.4628C10.6433 57.96 10.8547 58.3844 11.1279 58.7366C11.4008 59.0882 11.7308 59.3589 12.1184 59.548C12.5057 59.7374 12.9418 59.8321 13.4261 59.8321C13.9237 59.8321 14.3596 59.7593 14.7339 59.6142C15.1126 59.4691 15.4296 59.2601 15.6848 58.9871C15.9402 58.71 16.1361 58.3758 16.2727 57.9841C16.4137 57.5926 16.4971 57.148 16.5237 56.6511H15.3019C15.2711 57.0337 15.2182 57.3617 15.1434 57.6344C15.0686 57.9027 14.9583 58.125 14.8131 58.3008C14.6721 58.4725 14.4873 58.6001 14.2582 58.6837C14.0337 58.7629 13.7561 58.8025 13.4261 58.8025C13.074 58.8025 12.7745 58.7255 12.5279 58.5713C12.2813 58.413 12.081 58.1975 11.9269 57.9246C11.7773 57.6519 11.6671 57.333 11.5967 56.9678C11.5307 56.6026 11.4975 56.2089 11.4975 55.7865V53.998C11.4975 53.5448 11.5371 53.1334 11.6164 52.7639C11.7 52.3945 11.8255 52.0798 11.9929 51.8203C12.1602 51.5607 12.3716 51.3605 12.6271 51.2196C12.8823 51.0745 13.1862 51.002 13.5384 51.002C13.8334 51.002 14.0867 51.046 14.2978 51.134C14.5067 51.2155 14.6893 51.3524 14.8262 51.5299C14.9672 51.7057 15.075 51.9303 15.1498 52.203C15.2248 52.4759 15.2753 52.8012 15.3019 53.1797H16.5237C16.5016 52.6606 16.4204 52.201 16.2793 51.8004C16.1383 51.4001 15.9424 51.0634 15.6914 50.7907C15.4404 50.5178 15.1345 50.3112 14.7735 50.1703C14.4167 50.0297 14.0052 49.9591 13.5384 49.9591V49.9594ZM43.3649 49.9594C42.854 49.9594 42.396 50.056 41.991 50.2495C41.5889 50.4363 41.2361 50.7144 40.9606 51.0615C40.6832 51.4134 40.4699 51.8403 40.32 52.3416C40.1748 52.8389 40.1022 53.3953 40.1022 54.0113V55.7867C40.1022 56.4069 40.1748 56.9656 40.32 57.4628C40.4696 57.96 40.681 58.3844 40.9542 58.7366C41.2271 59.0882 41.5571 59.3589 41.9447 59.548C42.3323 59.7374 42.7681 59.8321 43.2525 59.8321C43.7501 59.8321 44.1859 59.7593 44.5602 59.6142C44.9389 59.4691 45.2559 59.2601 45.5113 58.9871C45.7665 58.71 45.9624 58.3758 46.099 57.9841C46.24 57.5926 46.3237 57.148 46.35 56.6511H45.1282C45.0974 57.0337 45.0445 57.3617 44.9697 57.6344C44.8949 57.9027 44.7849 58.125 44.6394 58.3008C44.4987 58.4725 44.3136 58.6001 44.0847 58.6837C43.8601 58.7629 43.5827 58.8025 43.2525 58.8025C42.9003 58.8025 42.6008 58.7255 42.3542 58.5713C42.1076 58.413 41.9073 58.1975 41.7533 57.9246C41.6036 57.6519 41.4936 57.333 41.423 56.9678C41.357 56.6026 41.3241 56.2089 41.3241 55.7865V53.998C41.3241 53.5448 41.3634 53.1334 41.4429 52.7639C41.5266 52.3945 41.6521 52.0798 41.8195 51.8203C41.9868 51.5607 42.1979 51.3605 42.4534 51.2196C42.7088 51.0745 43.0125 51.002 43.3647 51.002C43.66 51.002 43.913 51.046 44.1244 51.134C44.3355 51.2176 44.5117 51.3494 44.6527 51.5299C44.7935 51.7057 44.9013 51.9303 44.9763 52.203C45.0512 52.4759 45.1018 52.8012 45.1282 53.1797H46.35C46.3279 52.6606 46.2467 52.201 46.1057 51.8004C45.9647 51.4001 45.7688 51.0634 45.5177 50.7907C45.2667 50.5178 44.9608 50.3112 44.5998 50.1703C44.243 50.0297 43.8315 49.9591 43.3647 49.9591L43.3649 49.9594ZM20.5001 50.0914L17.4025 59.7H18.6441L19.3905 57.1921H22.6399L23.3993 59.7H24.6411L21.5369 50.0914H20.5001ZM25.9486 50.0914V59.7H27.1572V55.9382H29.013C29.4754 55.9382 29.8849 55.8743 30.2415 55.7469C30.5983 55.6148 30.8976 55.4257 31.1397 55.1793C31.3863 54.933 31.5711 54.6293 31.6944 54.2685C31.8224 53.9034 31.8861 53.49 31.8861 53.028C31.8861 52.6011 31.8221 52.2096 31.6944 51.8533C31.5714 51.4925 31.3885 51.1822 31.1464 50.9228C30.9042 50.6587 30.6025 50.4541 30.2415 50.309C29.8846 50.1639 29.4754 50.0912 29.013 50.0912H25.9486V50.0914ZM32.8107 50.0914V51.134H35.3336V59.7H36.542V51.134H39.0718V50.0914H32.8107ZM47.9814 50.0914V59.7H49.1897V55.2585H53.0603V59.7H54.2755V50.0914H53.0603V54.2225H49.19V50.0914H47.9814ZM58.8587 50.0914L55.7614 59.7H57.0032L57.7493 57.1921H60.9988L61.7585 59.7H63L59.8958 50.0914H58.859H58.8587ZM27.1569 51.134H29.013C29.308 51.134 29.5588 51.1866 29.766 51.2924C29.9772 51.3981 30.1489 51.5388 30.2811 51.7148C30.4206 51.8972 30.5217 52.1059 30.5781 52.3284C30.6443 52.5571 30.6773 52.7948 30.6773 53.0412C30.6773 53.3142 30.6443 53.5648 30.5781 53.7937C30.5215 54.0081 30.4203 54.2082 30.2811 54.3809C30.1489 54.5437 29.9772 54.6711 29.7658 54.7635C29.5591 54.856 29.308 54.9022 29.0127 54.9022H27.1572V51.134H27.1569ZM21.0149 51.7807L22.3293 56.1494H19.7074L21.0149 51.7807ZM59.3741 51.7807L60.6882 56.1494H58.0663L59.3741 51.7807ZM2.48333 52.4275C2.17941 52.4275 1.91732 52.5044 1.69731 52.6586C1.48148 52.8125 1.3011 53.0216 1.1559 53.2854L1.13597 52.5595H0V59.7H1.16895V54.5919C1.2792 54.2882 1.43546 54.0484 1.638 53.8726C1.84472 53.6966 2.10681 53.6085 2.42378 53.6085C2.52517 53.6085 2.61548 53.613 2.69448 53.6218C2.77397 53.6262 2.85986 53.6371 2.95214 53.6548L2.94574 52.5197C2.91812 52.5076 2.88923 52.4987 2.85961 52.4931C2.82103 52.4789 2.78136 52.4679 2.74099 52.4602C2.69511 52.4512 2.64878 52.4446 2.6022 52.4405C2.5631 52.4322 2.52329 52.4278 2.48333 52.4272V52.4275ZM6.41296 52.4275C6.07384 52.4275 5.74604 52.487 5.42883 52.6057C5.11186 52.7245 4.83008 52.9203 4.5835 53.193C4.34134 53.4615 4.14545 53.8134 3.99582 54.2489C3.84595 54.6802 3.77114 55.2103 3.77114 55.8394V56.6444C3.77114 57.1901 3.83513 57.663 3.96285 58.0633C4.09032 58.4636 4.27293 58.7961 4.5109 59.0599C4.75383 59.32 5.05487 59.5191 5.38945 59.6407C5.73275 59.7684 6.11789 59.8321 6.54511 59.8321C6.85322 59.8321 7.12835 59.8013 7.37075 59.7396C7.61734 59.6781 7.83513 59.5989 8.02463 59.5021C8.2018 59.4095 8.36611 59.2942 8.51337 59.159C8.64304 59.0391 8.76028 58.9065 8.86331 58.7631L8.25571 58.0239C8.15875 58.1427 8.05539 58.2526 7.94538 58.3537C7.83513 58.4506 7.71405 58.5364 7.58215 58.6112C7.44411 58.6838 7.29765 58.7392 7.14607 58.7762C6.97091 58.8177 6.79132 58.8377 6.61131 58.8357C6.06966 58.8357 5.65351 58.6618 5.36287 58.3144C5.07667 57.9666 4.93369 57.4102 4.93369 56.6447V56.4794H8.92287V55.7998C8.92287 55.2544 8.8766 54.7724 8.78407 54.3546C8.69154 53.9366 8.54413 53.5847 8.34159 53.2987C8.14448 53.0172 7.87531 52.7939 7.56221 52.652C7.24525 52.5022 6.86208 52.4275 6.41296 52.4275ZM6.41296 53.4307C6.6684 53.4307 6.8798 53.4767 7.04714 53.5692C7.21268 53.6599 7.34982 53.7946 7.44335 53.9584C7.5445 54.1257 7.61734 54.3258 7.66139 54.5592C7.70962 54.7879 7.74063 55.0409 7.75368 55.318V55.4764H4.94009C4.9578 55.0761 5.00629 54.7439 5.08528 54.4798C5.16477 54.2159 5.26813 54.0069 5.39585 53.853C5.528 53.6946 5.67984 53.5847 5.85162 53.523C6.03196 53.4599 6.2219 53.4286 6.41296 53.4305V53.4307Z" fill="#A6A6A6"/>
</g>
<defs>
<clipPath id="clip0_1_554">
<rect width="63" height="60" fill="white"/>
</clipPath>
</defs>
</svg>
