<svg width="35" height="54" viewBox="0 0 35 54" fill="none" xmlns="http://www.w3.org/2000/svg">
<path fill-rule="evenodd" clip-rule="evenodd" d="M18.2887 52.907C21.6984 48.1196 35 28.7765 35 18.3711C35 8.22504 27.165 0 17.5 0C7.83502 0 0 8.22504 0 18.3711C0 28.7765 13.3016 48.1196 16.7113 52.907C17.1016 53.455 17.8984 53.455 18.2887 52.907ZM17.5 25.3469C21.1244 25.3469 24.0625 22.3865 24.0625 18.7347C24.0625 15.0829 21.1244 12.1224 17.5 12.1224C13.8756 12.1224 10.9375 15.0829 10.9375 18.7347C10.9375 22.3865 13.8756 25.3469 17.5 25.3469Z" fill="#3F4C5C"/>
</svg>
