<svg width="546" height="496" viewBox="0 0 546 496" fill="none" xmlns="http://www.w3.org/2000/svg">
<g clip-path="url(#clip0_1290_75832)">
<path d="M71.1099 439.767H23.9961C15.2025 439.767 8 432.57 8 423.774V159.886V23.9453C8 15.1491 15.1982 7.95215 23.9961 7.95215H257.006L304.993 39.9384H522.007C530.805 39.9384 538.003 47.1428 538.003 55.9316V423.774C538.003 432.566 530.8 439.767 522.007 439.767H498.014H138.975" stroke="#CAD1DA" stroke-width="15.0001" stroke-miterlimit="22.9256"/>
<path fill-rule="evenodd" clip-rule="evenodd" d="M55.9883 39.9385C64.8224 39.9385 71.9844 47.0991 71.9844 55.9316C71.9844 64.7641 64.8224 71.9248 55.9883 71.9248C47.1542 71.9248 39.9922 64.7641 39.9922 55.9316C39.9922 47.0991 47.1542 39.9385 55.9883 39.9385ZM183.956 39.9385C192.79 39.9385 199.952 47.0991 199.952 55.9316C199.952 64.7641 192.79 71.9248 183.956 71.9248C175.122 71.9248 167.96 64.7641 167.96 55.9316C167.96 47.0991 175.122 39.9385 183.956 39.9385ZM119.973 39.9385C128.807 39.9385 135.969 47.0991 135.969 55.9316C135.969 64.7641 128.807 71.9248 119.973 71.9248C111.139 71.9248 103.977 64.7641 103.977 55.9316C103.977 47.0991 111.137 39.9385 119.973 39.9385Z" stroke="#CAD1DA" stroke-width="15.0001" stroke-miterlimit="22.9256"/>
<path d="M8 103.91H538.004M493.748 71.9248H509.744M453.225 71.9248H469.221" stroke="#CAD1DA" stroke-width="14.9998" stroke-miterlimit="2.6131" stroke-linecap="round" stroke-linejoin="round"/>
<path d="M273.002 391.787C339.26 391.787 392.973 338.084 392.973 271.838C392.973 205.592 339.26 151.89 273.002 151.89C206.744 151.89 153.031 205.592 153.031 271.838C153.031 338.084 206.744 391.787 273.002 391.787Z" stroke="#CAD1DA" stroke-width="15.0001" stroke-miterlimit="22.9256"/>
<path d="M172.908 337.991L63.756 447.123C54.4249 456.453 54.4249 471.721 63.757 481.05C73.0881 490.379 88.358 490.379 97.689 481.05L206.841 371.918M244.021 272.546L222.813 293.75C222.422 294.14 222.422 294.774 222.813 295.164L249.676 322.022C250.067 322.412 250.7 322.412 251.09 322.022L272.298 300.818C272.689 300.427 273.322 300.427 273.712 300.818L294.92 322.022C295.31 322.412 295.943 322.412 296.334 322.022L323.196 295.164C323.587 294.774 323.587 294.14 323.196 293.75L301.989 272.546C301.599 272.155 301.599 271.522 301.989 271.131L323.196 249.928C323.587 249.537 323.587 248.904 323.196 248.514L296.334 221.656C295.943 221.266 295.31 221.266 294.92 221.656L273.712 242.86C273.322 243.25 272.689 243.25 272.298 242.86L251.09 221.656C250.7 221.266 250.067 221.266 249.676 221.656L222.813 248.514C222.422 248.904 222.422 249.537 222.813 249.928L244.021 271.131C244.412 271.522 244.412 272.155 244.021 272.546Z" stroke="#CAD1DA" stroke-width="15.0001" stroke-miterlimit="22.9256"/>
</g>
<defs>
<clipPath id="clip0_1290_75832">
<rect width="546" height="496" fill="white"/>
</clipPath>
</defs>
</svg>
