<svg width="62" height="59" viewBox="0 0 62 59" fill="none" xmlns="http://www.w3.org/2000/svg">
<path d="M32.8902 58.1847C32.1234 58.1847 31.3566 58.1511 30.5898 58.1007C32.9507 56.4531 34.6457 54.7383 36.3003 53.074C38.6208 50.7372 41.022 48.3163 45.2797 46.0132C51.9587 42.3987 59.2632 41.2219 61.1802 40.9529C60.7564 42.6004 58.557 49.1233 49.0328 54.2172C46.8132 55.4276 40.7799 58.1847 32.8902 58.1847Z" fill="#3F4C5C"/>
<path d="M40.0742 47.5932C43.0001 43.1717 44.7758 38.683 45.3206 34.228C50.0625 29.9915 54.8448 27.3689 61.1606 25.6709C60.535 28.697 59.2033 32.6981 58.0329 35.0181C57.3469 36.3799 56.2976 37.8425 55.2887 39.2714C54.7842 39.9943 54.2798 40.7004 53.856 41.3393C49.5379 42.0285 44.9372 44.1132 40.0742 47.5932Z" fill="#3F4C5C"/>
<path d="M28.7519 57.714C24.2925 52.099 22.1536 45.3912 21.1447 40.7007C19.934 35.1025 20.4183 29.4874 22.5975 23.5698C24.6355 18.0556 33.857 5.22838 35.6731 2.75708C37.3479 5.17794 45.4192 17.6689 44.2489 30.0422C43.1996 41.2723 37.2672 51.8468 28.7519 57.714Z" fill="#3F4C5C"/>
<path d="M18.8055 36.8005C17.6755 26.9153 23.4062 17.7698 24.5967 16.324C18.3414 7.85099 10.5728 1.52985 7.12226 0C6.94065 1.86608 5.77031 6.23708 4.70085 10.1374C4.27711 11.7176 3.87354 13.1803 3.61122 14.2562L2.88481 17.0805C1.27054 23.3008 -0.121766 28.6805 1.00822 35.5396C2.68302 45.8283 11.3193 53.528 25.3029 57.2265L26.6751 57.5459C22.599 52.0317 19.6732 44.332 18.8055 36.8005ZM22.5183 55.6294C5.22549 49.51 1.41179 28.4619 5.22549 13.5669C5.32638 13.2139 0.18091 47.0051 22.821 55.4109C23.164 55.5285 23.0228 55.7975 22.5183 55.6294Z" fill="#3F4C5C"/>
<path d="M44.6562 18.5766C44.6562 18.5766 45.8871 16.0213 50.064 14.3906C53.1311 13.1969 54.5033 13.2474 54.5033 13.2474C54.584 17.0804 54.7656 19.5349 53.8777 22.9308C53.111 25.8728 51.4765 28.7981 45.7257 31.7905C45.7055 31.7905 46.8153 26.0241 44.6562 18.5766Z" fill="#3F4C5C"/>
</svg>
