<svg width="162" height="125" viewBox="0 0 162 125" fill="none" xmlns="http://www.w3.org/2000/svg">
<g id="Group">
<path id="Vector" d="M106 152C113.77 137.882 118.486 123.549 119.933 109.324C132.526 95.796 145.227 87.4218 162 82C160.339 91.6626 156.802 104.439 153.694 111.847C151.872 116.195 149.085 120.865 146.406 125.428C145.066 127.736 143.726 129.991 142.601 132.031C131.133 134.232 118.915 140.888 106 152Z" fill="#ADB8BF" fill-opacity="0.1"/>
<path id="Vector_2" d="M75.137 185C63.1796 167.018 57.4444 145.536 54.7391 130.515C51.4928 112.586 52.7913 94.6042 58.6347 75.6528C64.0994 57.9936 88.8258 16.9143 93.6953 9C98.1861 16.7528 119.828 56.7553 116.69 96.3809C113.877 132.345 97.9697 166.21 75.137 185Z" fill="#ADB8BF" fill-opacity="0.1"/>
<path id="Vector_3" d="M48.8756 117.668C45.8424 86.0602 61.2253 56.818 64.421 52.1952C47.6298 25.1031 26.7763 4.89162 17.5141 0C17.0266 5.9667 13.885 19.9427 11.0143 32.4137C9.87682 37.4665 8.79352 42.1432 8.08937 45.5834L6.13943 54.6141C1.80623 74.5031 -1.93116 91.7044 1.10208 113.636C5.59778 146.533 28.7804 171.153 66.3168 182.979L70 184C59.0587 166.369 51.2047 141.749 48.8756 117.668ZM58.842 177.872C12.4226 158.306 2.18539 91.0056 12.4226 43.3795C12.6934 42.2507 -1.11868 150.296 59.6545 177.173C60.5753 177.55 60.1961 178.41 58.842 177.872Z" fill="#ADB8BF" fill-opacity="0.1"/>
<path id="Vector_4" d="M118 58.9572C118 58.9572 121.351 50.8268 132.721 45.6383C141.069 41.8405 144.805 42.001 144.805 42.001C145.024 54.1966 145.519 62.0061 143.102 72.811C141.015 82.1717 136.565 91.4789 120.911 101C120.856 101 123.877 82.6531 118 58.9572Z" fill="#ADB8BF" fill-opacity="0.1"/>
</g>
</svg>
