<svg width="240" height="240" viewBox="0 0 240 240" fill="none" xmlns="http://www.w3.org/2000/svg">
<g clip-path="url(#clip0_2287_40006)">
<path d="M119.999 51.2222C115.307 51.2222 111.504 47.4192 111.504 42.727V8.49516C111.504 3.80297 115.307 0 119.999 0C124.691 0 128.494 3.80297 128.494 8.49516V42.7275C128.494 47.4192 124.691 51.2222 119.999 51.2222Z" fill="white"/>
<path d="M119.999 240C115.307 240 111.504 236.197 111.504 231.505V197.272C111.504 192.58 115.307 188.777 119.999 188.777C124.691 188.777 128.494 192.58 128.494 197.272V231.505C128.494 236.197 124.691 240 119.999 240Z" fill="white" fill-opacity="0.45"/>
<path d="M162.14 231.732C158.791 231.732 155.616 229.737 154.272 226.446L141.336 194.752C139.563 190.408 141.648 185.449 145.991 183.677C150.332 181.902 155.293 183.987 157.066 188.331L170.002 220.024C171.776 224.368 169.691 229.327 165.348 231.1C164.33 231.517 163.24 231.732 162.14 231.732Z" fill="white" fill-opacity="0.5"/>
<path d="M149.198 56.9541C148.129 56.9541 147.042 56.7516 145.991 56.3218C141.647 54.5499 139.563 49.5905 141.336 45.2466L154.273 13.553C156.045 9.20913 161.004 7.11897 165.348 8.89882C169.692 10.6707 171.776 15.6301 170.002 19.974L157.066 51.6676C155.722 54.9601 152.548 56.9541 149.198 56.9541Z" fill="white" fill-opacity="0.8"/>
<path d="M77.8575 231.732C76.7883 231.732 75.7012 231.53 74.6503 231.1C70.3064 229.328 68.2223 224.369 69.9956 220.025L82.9317 188.331C84.705 183.987 89.663 181.902 94.0069 183.677C98.3508 185.449 100.435 190.409 98.6616 194.753L85.7255 226.446C84.3816 229.738 81.2072 231.732 77.8575 231.732Z" fill="white" fill-opacity="0.4"/>
<path d="M16.7659 170.635C13.4163 170.635 10.2419 168.642 8.89797 165.349C7.12469 161.005 9.20875 156.046 13.5522 154.274L45.2453 141.337C49.5888 139.559 54.5477 141.645 56.3209 145.991C58.0942 150.335 56.0102 155.294 51.6667 157.066L19.9736 170.002C18.9557 170.42 17.8661 170.635 16.7659 170.635Z" fill="white" fill-opacity="0.3"/>
<path d="M191.545 99.2953C188.196 99.2953 185.021 97.3027 183.677 94.0092C181.904 89.6653 183.988 84.7064 188.331 82.9341L220.025 69.9975C224.367 68.2205 229.327 70.3059 231.1 74.6517C232.874 78.9956 230.789 83.9545 226.446 85.7269L194.753 98.6634C193.735 99.0805 192.645 99.2951 191.545 99.2953Z" fill="white" fill-opacity="0.7"/>
<path d="M48.454 99.2949C47.3848 99.2949 46.2978 99.0924 45.2464 98.6626L13.5532 85.726C9.20932 83.9542 7.12573 78.9948 8.89901 74.6509C10.6718 70.307 15.6293 68.2234 19.9746 69.9967L51.6678 82.9332C56.0117 84.7051 58.0953 89.6645 56.322 94.0084C54.9781 97.3004 51.8032 99.2949 48.454 99.2949Z" fill="white" fill-opacity="0.2"/>
<path d="M223.232 170.635C222.163 170.635 221.076 170.432 220.025 170.002L188.332 157.066C183.988 155.294 181.904 150.334 183.677 145.99C185.451 141.65 190.408 139.564 194.753 141.337L226.446 154.273C230.79 156.045 232.874 161.005 231.1 165.348C229.756 168.64 226.582 170.635 223.232 170.635Z" fill="white" fill-opacity="0.6"/>
<path d="M174.639 73.8549C172.465 73.8549 170.292 73.0252 168.633 71.3663C165.315 68.0494 165.315 62.6705 168.632 59.3537L192.838 35.1479C196.155 31.8296 201.534 31.8296 204.851 35.1479C208.169 38.4648 208.169 43.8437 204.852 47.1605L180.646 71.3663C179.858 72.1565 178.922 72.7831 177.891 73.2102C176.86 73.6372 175.755 73.8564 174.639 73.8549Z" fill="white" fill-opacity="0.75"/>
<path d="M41.154 207.341C38.9799 207.341 36.8063 206.512 35.1474 204.853C31.8301 201.536 31.8296 196.157 35.147 192.84L59.3523 168.634C62.6696 165.316 68.0485 165.316 71.3659 168.634C74.6832 171.951 74.6837 177.33 71.3663 180.647L47.161 204.853C46.373 205.643 45.4367 206.269 44.4058 206.696C43.3749 207.123 42.2698 207.343 41.154 207.341Z" fill="white" fill-opacity="0.35"/>
<path d="M65.3595 73.8548C63.1849 73.8548 61.0118 73.0252 59.3524 71.3663L35.1471 47.1605C31.8298 43.8436 31.8298 38.4647 35.1476 35.1478C38.4645 31.8309 43.8434 31.8309 47.1612 35.1478L71.3665 59.3536C74.6838 62.6705 74.6838 68.0494 71.366 71.3663C70.5782 72.1563 69.6419 72.7829 68.6111 73.21C67.5803 73.6371 66.4753 73.8562 65.3595 73.8548Z" fill="white" fill-opacity="0.1"/>
<path d="M198.845 207.341C196.67 207.341 194.497 206.511 192.838 204.853L168.632 180.647C165.315 177.33 165.315 171.951 168.633 168.634C171.95 165.317 177.329 165.317 180.646 168.634L204.852 192.84C208.169 196.157 208.169 201.536 204.851 204.853C204.063 205.643 203.127 206.269 202.096 206.696C201.066 207.124 199.96 207.343 198.845 207.341Z" fill="white" fill-opacity="0.55"/>
<path d="M42.7261 128.495H8.49516C3.80344 128.495 0 124.692 0 120C0 115.308 3.80344 111.505 8.49516 111.505H42.7261C47.4178 111.505 51.2213 115.308 51.2213 120C51.2213 124.692 47.4178 128.495 42.7261 128.495Z" fill="white" fill-opacity="0.25"/>
<path d="M231.504 128.495H197.272C192.581 128.495 188.777 124.692 188.777 120C188.777 115.308 192.581 111.505 197.272 111.505H231.504C236.196 111.505 240 115.308 240 120C240 124.692 236.197 128.495 231.504 128.495Z" fill="white" fill-opacity="0.65"/>
</g>
<defs>
<clipPath id="clip0_2287_40006">
<rect width="240" height="240" fill="white"/>
</clipPath>
</defs>
</svg>
